<svg id="Capa_1" enable-background="new 0 0 512 512" height="512" viewBox="0 0 512 512" width="512" xmlns="http://www.w3.org/2000/svg"><g><path d="m420.809.003h-329.621c-3.47 0-6.283 2.813-6.283 6.283v495.318c0 4.994 5.545 7.992 9.724 5.257l21.06-13.784c2.09-1.368 4.792-1.368 6.882 0l27.343 17.897c2.09 1.368 4.792 1.368 6.882 0l27.338-17.896c2.09-1.368 4.792-1.368 6.883 0l27.339 17.896c2.09 1.368 4.792 1.368 6.883 0l27.337-17.896c2.09-1.368 4.793-1.368 6.883 0l27.336 17.896c2.09 1.368 4.793 1.368 6.883 0l27.332-17.895c2.09-1.369 4.793-1.369 6.884 0l27.33 17.894c2.09 1.369 4.793 1.369 6.884 0l27.327-17.894c2.09-1.369 4.793-1.369 6.884 0l21.051 13.782c4.179 2.736 9.725-.262 9.725-5.257v-495.318c-.003-3.47-2.816-6.283-6.286-6.283z" fill="#f9f3f1"/><path d="m427.095 6.285v495.323c0 4.986-5.553 7.985-9.726 5.254l-10.88-7.129v-493.448c0-3.472-2.813-6.285-6.285-6.285h20.605c3.474 0 6.286 2.813 6.286 6.285z" fill="#efe2dd"/><g><g><path d="m305.975 101.175h-23.135c-4.554 0-8.246-3.692-8.246-8.246v-23.135c0-4.554-3.692-8.246-8.246-8.246h-20.699c-4.554 0-8.246 3.692-8.246 8.246v23.136c0 4.554-3.692 8.246-8.246 8.246h-23.135c-4.554 0-8.246 3.692-8.246 8.246v20.699c0 4.554 3.692 8.246 8.246 8.246h23.135c4.554 0 8.246 3.692 8.246 8.246v23.135c0 4.554 3.692 8.246 8.246 8.246h20.699c4.554 0 8.246-3.692 8.246-8.246v-23.135c0-4.554 3.692-8.246 8.246-8.246h23.135c4.554 0 8.246-3.692 8.246-8.246v-20.699c-.001-4.555-3.692-8.247-8.246-8.247z" fill="#ee6161"/><g fill="#e94444"><path d="m262.098 138.362h20.739c-4.554 0-8.242 3.699-8.242 8.252v23.13c0 4.554-3.688 8.252-8.242 8.252h-20.708c4.533-.021 8.201-3.709 8.201-8.252v-23.13c-.001-4.554 3.698-8.252 8.252-8.252z"/><path d="m282.837 101.179h-20.739c-4.554 0-8.252-3.699-8.252-8.252v-23.13c0-4.544-3.668-8.232-8.201-8.252h20.708c4.554 0 8.242 3.699 8.242 8.252v23.13c0 4.554 3.688 8.252 8.242 8.252z"/><path d="m314.219 109.421v20.698c0 4.554-3.688 8.242-8.242 8.242h-20.75c4.554 0 8.252-3.688 8.252-8.242v-20.698c0-4.554-3.699-8.242-8.252-8.242h20.75c4.554 0 8.242 3.689 8.242 8.242z"/></g></g><g><path d="m359.521 426.269c-3.541 3.435-7.352 5.451-10.731 5.679-2.96.199-6.015-1.325-6.813-3.397-.928-2.414.268-6.582 1.141-9.625 1.074-3.742-.894-7.684-4.531-9.074-3.638-1.39-7.732.233-9.429 3.737-3.627 7.491-8.958 14.226-15.417 19.473-.176.144-.335.27-.479.38.165-2.176.957-6.051 3.383-11.994 2.884-7.065 6.224-12.547 7.049-13.517 2.773-3.077 2.526-7.819-.55-10.592s-7.819-2.525-10.598.557c-9.467 10.504-19.689 20.326-30.557 29.371 8.346-18.549 17.18-36.947 26.391-54.956 1.886-3.688.426-8.206-3.262-10.093-3.687-1.884-8.206-.426-10.092 3.263-13.686 26.759-26.551 54.369-38.237 82.062-2.874 6.81 5.002 13.298 11.138 9.111 10.596-7.231 20.742-15.12 30.365-23.602-.14 3.248.283 6.269 1.505 8.819 2.392 4.991 7.274 7.649 13.393 7.311 4.263-.242 7.453-2.399 10.012-4.478 2.49-2.023 4.848-4.222 7.051-6.568 4.19 5.83 11.641 9.301 19.546 8.779 7.019-.473 13.992-3.889 20.167-9.88 2.973-2.884 3.045-7.632.161-10.604-2.885-2.976-7.633-3.048-10.606-.162z" fill="#cdbfba"/><g><g><g><path d="m272.772 242.872h-124.127c-4.142 0-7.5-3.357-7.5-7.5s3.358-7.5 7.5-7.5h124.127c4.142 0 7.5 3.357 7.5 7.5s-3.357 7.5-7.5 7.5z" fill="#cdbfba"/></g><g><path d="m363.352 242.872h-26.838c-4.142 0-7.5-3.357-7.5-7.5s3.358-7.5 7.5-7.5h26.838c4.142 0 7.5 3.357 7.5 7.5s-3.358 7.5-7.5 7.5z" fill="#cdbfba"/></g></g><g><g><path d="m221.309 286.58h-72.664c-4.142 0-7.5-3.357-7.5-7.5s3.358-7.5 7.5-7.5h72.664c4.142 0 7.5 3.357 7.5 7.5s-3.358 7.5-7.5 7.5z" fill="#cdbfba"/></g><g><path d="m363.352 286.58h-26.838c-4.142 0-7.5-3.357-7.5-7.5s3.358-7.5 7.5-7.5h26.838c4.142 0 7.5 3.357 7.5 7.5s-3.358 7.5-7.5 7.5z" fill="#cdbfba"/></g></g><g><g><path d="m272.772 330.288h-124.127c-4.142 0-7.5-3.357-7.5-7.5s3.358-7.5 7.5-7.5h124.127c4.142 0 7.5 3.357 7.5 7.5s-3.357 7.5-7.5 7.5z" fill="#cdbfba"/></g><g><path d="m363.352 330.288h-26.838c-4.142 0-7.5-3.357-7.5-7.5s3.358-7.5 7.5-7.5h26.838c4.142 0 7.5 3.357 7.5 7.5s-3.358 7.5-7.5 7.5z" fill="#cdbfba"/></g></g></g></g></g></g></svg>